<svg width="70" height="70" viewBox="0 0 70 70" fill="none" xmlns="https://www.w3.org/2000/svg"><title>Find Vitamins</title><circle cx="35" cy="35" r="35" fill="white"></circle><path fill-rule="evenodd" clip-rule="evenodd" d="M47.8297 16C47.8297 16 52.8335 20.176 52.8335 30.1698C52.8335 40.1637 44.8626 46.6899 39.0801 50.3017C33.2975 53.9135 22.8335 42.7441 22.8335 34.4689C22.8335 26.1937 47.8297 16 47.8297 16Z" fill="#D2D9FF"></path><path d="M17.8335 52.0942C17.8335 52.0942 37.5516 43.2931 45.3335 27.1631" stroke="#3557FF" stroke-width="2" stroke-linecap="round" stroke-linejoin="round"></path><path d="M23.8336 41.5001C20.5295 33.8479 23.831 25.948 34.403 22.1583C44.9751 18.3685 46.4319 13.7817 48.0599 13.7817C49.431 13.7817 52.2934 22.4927 52.2934 29.9597C52.2934 37.4267 46.7831 49.9083 35.954 49.9083C32.051 49.9083 27.8529 47.0923 27.8529 47.0923" stroke="#3557FF" stroke-width="2" stroke-linecap="round" stroke-linejoin="round"></path></svg>