<svg width="71" height="70" viewBox="0 0 71 70" fill="none" xmlns="https://www.w3.org/2000/svg"><title>Latest Drug News</title><circle cx="35.5" cy="35" r="35" fill="white"></circle><path fill-rule="evenodd" clip-rule="evenodd" d="M43.1304 32.265H51.399C51.8228 32.265 52.1672 32.61 52.166 33.0357V45.1901C52.166 49.3717 50.6845 51 46.88 51H19.452C15.6475 51 14.166 49.3717 14.166 45.1901V21.7707C14.166 21.345 14.5092 21 14.9342 21H42.3598C42.7848 21 43.1304 21.345 43.1304 21.7707V32.265Z" fill="white"></path><path fill-rule="evenodd" clip-rule="evenodd" d="M51.399 32.265H43.1304V21.7707C43.1304 21.345 42.7848 21 42.3598 21H14.9342C14.5092 21 14.166 21.345 14.166 21.7707V45.1901C14.166 49.3717 15.6475 51 19.452 51H46.88C50.6845 51 52.166 49.3717 52.166 45.1901V33.0357C52.1672 32.61 51.8228 32.265 51.399 32.265ZM19.452 49.4586C16.8615 49.4586 15.7049 48.842 15.7049 45.1901V22.5415H41.5915V45.1901C41.5915 47.1329 41.9115 48.5251 42.6358 49.4586H19.452ZM46.8812 49.4586C49.4741 49.4586 50.6283 48.842 50.6283 45.1902H50.6295V33.8065H43.1317V45.1902C43.1317 48.842 44.2883 49.4586 46.8812 49.4586Z" fill="#3557FF"></path><path d="M43.1304 32.265H42.8804V32.515H43.1304V32.265ZM52.166 33.0357L51.916 33.035V33.0357H52.166ZM15.7049 22.5415V22.2915H15.4549V22.5415H15.7049ZM41.5915 22.5415H41.8415V22.2915H41.5915V22.5415ZM42.6358 49.4586V49.7086H43.1462L42.8333 49.3053L42.6358 49.4586ZM50.6283 45.1902V44.9402H50.3783V45.1902H50.6283ZM50.6295 45.1902V45.4402H50.8795V45.1902H50.6295ZM50.6295 33.8065H50.8795V33.5565H50.6295V33.8065ZM43.1317 33.8065V33.5565H42.8817V33.8065H43.1317ZM43.1304 32.515H51.399V32.015H43.1304V32.515ZM42.8804 21.7707V32.265H43.3804V21.7707H42.8804ZM42.3598 21.25C42.6468 21.25 42.8804 21.4832 42.8804 21.7707H43.3804C43.3804 21.2068 42.9227 20.75 42.3598 20.75V21.25ZM14.9342 21.25H42.3598V20.75H14.9342V21.25ZM14.416 21.7707C14.416 21.4822 14.6482 21.25 14.9342 21.25V20.75C14.3702 20.75 13.916 21.2078 13.916 21.7707H14.416ZM14.416 45.1901V21.7707H13.916V45.1901H14.416ZM19.452 50.75C17.5781 50.75 16.3435 50.348 15.5672 49.4949C14.7854 48.6356 14.416 47.2623 14.416 45.1901H13.916C13.916 47.2994 14.2874 48.8312 15.1974 49.8314C16.1131 50.8378 17.5214 51.25 19.452 51.25V50.75ZM46.88 50.75H19.452V51.25H46.88V50.75ZM51.916 45.1901C51.916 47.2623 51.5466 48.6356 50.7648 49.4949C49.9886 50.348 48.7539 50.75 46.88 50.75V51.25C48.8106 51.25 50.2189 50.8378 51.1346 49.8314C52.0446 48.8312 52.416 47.2994 52.416 45.1901H51.916ZM51.916 33.0357V45.1901H52.416V33.0357H51.916ZM51.399 32.515C51.6842 32.515 51.9168 32.7474 51.916 33.035L52.416 33.0364C52.4176 32.4726 51.9614 32.015 51.399 32.015V32.515ZM15.4549 45.1901C15.4549 47.0243 15.7411 48.184 16.4306 48.8709C17.1222 49.5599 18.156 49.7086 19.452 49.7086V49.2086C18.1576 49.2086 17.3178 49.049 16.7835 48.5167C16.2471 47.9823 15.9549 47.0078 15.9549 45.1901H15.4549ZM15.4549 22.5415V45.1901H15.9549V22.5415H15.4549ZM41.5915 22.2915H15.7049V22.7915H41.5915V22.2915ZM41.8415 45.1901V22.5415H41.3415V45.1901H41.8415ZM42.8333 49.3053C42.1605 48.4381 41.8415 47.1148 41.8415 45.1901H41.3415C41.3415 47.151 41.6626 48.6121 42.4383 49.6118L42.8333 49.3053ZM19.452 49.7086H42.6358V49.2086H19.452V49.7086ZM50.3783 45.1902C50.3783 47.008 50.0868 47.9824 49.5506 48.5167C49.0166 49.049 48.177 49.2086 46.8812 49.2086V49.7086C48.1784 49.7086 49.2123 49.5599 49.9036 48.8709C50.5928 48.184 50.8783 47.0242 50.8783 45.1902H50.3783ZM50.6295 44.9402H50.6283V45.4402H50.6295V44.9402ZM50.3795 33.8065V45.1902H50.8795V33.8065H50.3795ZM43.1317 34.0565H50.6295V33.5565H43.1317V34.0565ZM43.3817 45.1902V33.8065H42.8817V45.1902H43.3817ZM46.8812 49.2086C45.5855 49.2086 44.7451 49.049 44.2105 48.5167C43.6738 47.9823 43.3817 47.0079 43.3817 45.1902H42.8817C42.8817 47.0243 43.1678 48.1841 43.8577 48.871C44.5496 49.5599 45.584 49.7086 46.8812 49.7086V49.2086Z" fill="#3557FF"></path><rect x="19.166" y="26.0394" width="19" height="2" fill="#3557FF"></rect><rect x="31.166" y="32" width="7" height="1.5" fill="#3557FF"></rect><rect x="31.166" y="39" width="7" height="1.5" fill="#3557FF"></rect><rect x="31.166" y="35.5" width="7" height="1.5" fill="#3557FF"></rect><path d="M28.4263 31H19.9034C19.4954 31 19.166 31.3493 19.166 31.7805V44.2195C19.166 44.6507 19.4954 45 19.9034 45H28.4263C28.8342 45 29.166 44.6507 29.166 44.2195V31.7805C29.166 31.3493 28.8331 31 28.4263 31Z" fill="#D2D9FF"></path><path fill-rule="evenodd" clip-rule="evenodd" d="M19.9034 31H28.4263C28.8331 31 29.166 31.3493 29.166 31.7805V44.2195C29.166 44.6507 28.8342 45 28.4263 45H19.9034C19.4954 45 19.166 44.6507 19.166 44.2195V31.7805C19.166 31.3493 19.4954 31 19.9034 31ZM20.6432 43.4378H27.6889V32.5609H20.6432V43.4378Z" fill="#3557FF"></path></svg>