<svg width="345" height="81" viewBox="0 0 345 81" fill="none" xmlns="http://www.w3.org/2000/svg">
<path d="M27.0415 26.6023C25.2375 26.6023 23.4883 26.9435 21.8434 27.6171C20.1962 28.2915 18.7304 29.2407 17.4865 30.4384C16.2426 31.6356 15.235 33.0831 14.4919 34.7406C13.7521 36.3897 13.3772 38.2337 13.3772 40.2222C13.3772 42.2103 13.7581 44.0668 14.5098 45.74C15.2665 47.4243 16.2817 48.8981 17.5271 50.1194C18.7715 51.3402 20.2301 52.3002 21.8628 52.9733C23.495 53.6459 25.225 53.9872 27.0054 53.9872C27.8732 53.9872 28.7661 53.9002 29.6592 53.7284C30.5579 53.5558 31.5458 53.2793 32.5956 52.9068L32.8625 52.8131V46.4947C31.2225 47.8226 29.4041 48.4939 27.4392 48.4939C26.3127 48.4939 25.2482 48.2803 24.2752 47.8592C23.3062 47.4413 22.4486 46.856 21.7266 46.1209C21.0047 45.3872 20.4325 44.5102 20.0268 43.5155C19.6215 42.5235 19.416 41.4275 19.416 40.2584C19.416 39.1142 19.6215 38.0303 20.027 37.0374C20.4318 36.0449 20.9978 35.1742 21.7086 34.4502C22.4196 33.7267 23.2781 33.1478 24.2602 32.7285C25.2466 32.3087 26.3281 32.0955 27.4753 32.0955C29.5209 32.0955 31.3265 32.7655 32.8625 34.0903V27.7875C31.9 27.4092 30.9705 27.1211 30.0939 26.9297C29.098 26.7125 28.0707 26.6023 27.0415 26.6023Z" fill="#1F1D43"/>
<path d="M94.5418 27.361L89.2863 41.4373L88.6462 43.1519L88.0022 41.4386L82.7112 27.361H76.7525L72.3586 53.2284H78.0049L80.2669 38.1342L80.6485 35.5868L81.5836 37.987L87.5224 53.2284H89.413L95.6728 37.9754L96.6168 35.6756L96.985 38.1342L99.247 53.2284H104.893L100.499 27.361H94.5418Z" fill="#1F1D43"/>
<path d="M122.226 27.361H112.015V53.2284H117.728V45.7962V45.1953H118.414H122.242C128.033 45.1953 131.563 41.4509 131.563 35.9842C131.563 30.1925 128.025 27.361 122.226 27.361ZM121.798 40.4854H118.414H117.728V39.3435V32.5523V31.8672H118.414H121.798C124.729 31.8672 126.188 33.3572 126.188 35.9885C126.188 38.6203 124.758 40.4854 121.798 40.4854Z" fill="#1F1D43"/>
<path d="M142.562 27.361L132.71 53.2284H135.668H138.781H143.995L143.998 48.2545H140.12L140.215 49.1119L145.84 34.3658L146.487 32.5218L147.134 34.3658L152.614 49.1424L152.8 48.2545H148.838L148.835 53.2284H154.048H157.161H160.119L150.267 27.361H142.562Z" fill="#1F1D43"/>
<path d="M63.0222 50.1608C60.3316 52.7315 56.8917 54.0757 52.9744 54.0757C49.0571 54.0757 45.6173 52.7315 42.9266 50.1608C40.1176 47.4717 38.7722 43.7941 38.7722 40.3147C38.7722 36.7953 40.1176 33.0778 42.9266 30.4287C45.6173 27.858 49.0571 26.5138 52.9744 26.5138C56.8917 26.5138 60.3316 27.858 63.0222 30.4287C65.8316 33.0778 67.177 36.7953 67.177 40.3147C67.177 43.7941 65.8316 47.4717 63.0222 50.1608ZM47.2107 34.4632C45.5634 36.0641 44.7852 38.3047 44.7852 40.4547C44.7852 43.1536 46.0666 45.029 47.2107 46.1263C48.6752 47.5442 50.32 48.5507 52.9744 48.5507C55.6746 48.5507 57.2736 47.5903 58.6924 46.1724C60.1112 44.7545 61.1637 42.6499 61.1637 40.3178C61.1637 37.9395 60.1112 35.8349 58.6924 34.4632C56.999 32.8623 55.0799 32.0387 52.9744 32.0387C50.7778 32.0387 48.8583 32.8161 47.2107 34.4632Z" fill="#1F1D43"/>
<path d="M168.169 53.2388C166.487 52.6691 165.136 51.929 164.117 51.0176L166.364 46.3834C167.34 47.2189 168.044 47.8904 169.389 48.3971C170.735 48.9038 172.08 49.1567 173.425 49.1567C174.923 49.1567 176.029 48.8973 176.745 48.3777C177.461 47.859 177.819 47.1689 177.819 46.3074C177.819 45.6748 177.607 45.1496 177.184 44.7318C176.761 44.3141 176.219 43.9788 175.557 43.725C174.895 43.4721 174 43.1933 172.872 42.8895C171.136 42.4087 169.715 41.9271 168.608 41.4463C167.502 40.9656 166.552 40.1931 165.761 39.1297C164.968 38.0663 164.572 36.6482 164.572 34.8753C164.572 33.3312 164.93 31.9316 165.647 30.6783C166.363 29.4251 167.442 28.4321 168.885 27.6976C170.327 26.963 172.091 26.5953 174.174 26.5953C175.627 26.5953 177.049 26.7991 178.437 27.2038C179.826 27.6086 181.041 28.1913 182.083 28.9508L179.998 33.622C177.893 32.2298 176.246 31.5333 174.141 31.5333C172.665 31.5333 171.575 31.8121 170.87 32.3688C170.165 32.9264 169.812 33.66 169.812 34.5715C169.812 35.4829 170.22 36.161 171.033 36.6037C171.847 37.0465 173.089 37.4837 174.76 37.9144C176.495 38.3952 177.917 38.8768 179.023 39.3576C180.13 39.8383 181.079 40.5978 181.871 41.6362C182.663 42.6746 183.059 44.0797 183.059 45.8517C183.059 47.3708 182.695 48.7574 181.969 50.0107C181.242 51.264 180.151 52.2579 178.698 52.9924C177.244 53.726 175.476 54.0937 173.393 54.0937C171.592 54.0937 169.85 53.8094 168.169 53.2388Z" fill="#1F1D43"/>
<path d="M192.379 53.2388C190.697 52.6691 189.346 51.929 188.327 51.0176L190.574 46.3834C191.545 47.3169 192.254 47.8904 193.599 48.3971C194.945 48.9038 196.29 49.1567 197.635 49.1567C199.132 49.1567 200.239 48.8973 200.955 48.3777C201.671 47.859 202.029 47.1689 202.029 46.3074C202.029 45.6748 201.817 45.1496 201.394 44.7318C200.971 44.3141 200.429 43.9788 199.767 43.725C199.105 43.4721 198.21 43.1933 197.082 42.8895C195.346 42.4087 193.925 41.9271 192.818 41.4463C191.712 40.9656 190.762 40.1931 189.971 39.1297C189.178 38.0663 188.782 36.6482 188.782 34.8753C188.782 33.3312 189.14 31.9316 189.857 30.6783C190.573 29.4251 191.652 28.4321 193.095 27.6976C194.537 26.963 196.301 26.5953 198.384 26.5953C199.837 26.5953 201.259 26.7991 202.647 27.2038C204.036 27.6086 205.251 28.1913 206.293 28.9508L204.208 33.622C202.103 32.2298 200.456 31.5333 198.351 31.5333C196.875 31.5333 195.785 31.8121 195.08 32.3688C194.375 32.9264 194.022 33.66 194.022 34.5715C194.022 35.4829 194.429 36.161 195.243 36.6037C196.057 37.0465 197.299 37.4837 198.97 37.9144C200.705 38.3952 202.127 38.8768 203.233 39.3576C204.34 39.8383 205.289 40.5978 206.081 41.6362C206.873 42.6746 207.269 44.0797 207.269 45.8517C207.269 47.3708 206.905 48.7574 206.179 50.0107C205.452 51.264 204.361 52.2579 202.908 52.9924C201.454 53.726 199.686 54.0937 197.603 54.0937C195.801 54.0937 194.06 53.8094 192.379 53.2388Z" fill="#1F1D43"/>
<path d="M225.481 49.0597C225.481 50.4189 225.168 51.5098 224.544 52.3347C223.919 53.1597 223.079 53.5722 222.026 53.5722C220.903 53.5722 220.034 53.1747 219.419 52.3807L219.346 53.4082H217.948V40.7838H219.469V45.4926C220.083 44.731 220.93 44.3496 222.01 44.3496C223.091 44.3496 223.938 44.7583 224.555 45.5747C225.173 46.3909 225.481 47.5092 225.481 48.928V49.0597ZM223.959 48.887C223.959 47.8521 223.759 47.0507 223.359 46.4866C222.959 45.9225 222.383 45.6405 221.632 45.6405C220.629 45.6405 219.908 46.1064 219.469 47.0382V50.8835C219.935 51.8154 220.661 52.2813 221.648 52.2813C222.378 52.2813 222.945 51.9993 223.35 51.4352C223.757 50.8712 223.959 50.0213 223.959 48.887Z" fill="#1F1D43"/>
<path d="M230.346 51.1801L232.418 44.5145H234.047L230.469 54.7795C229.916 56.2592 229.036 56.9997 227.83 56.9997L227.541 56.9749L226.974 56.868V55.6343L227.386 55.6678C227.901 55.6678 228.302 55.5635 228.591 55.356C228.878 55.1472 229.115 54.7659 229.302 54.213L229.638 53.3084L226.465 44.5145H228.126L230.346 51.1801Z" fill="#1F1D43"/>
<path d="M299.252 52.9432C298.775 52.7481 298.431 52.3207 298.34 51.8138C298.34 51.5007 298.015 37.6103 298.015 37.6103C298.015 36.917 298.015 36.3715 297.846 36.2995C297.361 36.2312 296.872 36.2088 296.383 36.2312C295.983 36.1691 295.573 36.2101 295.192 36.3479C294.942 36.7617 294.743 37.2015 294.595 37.66L293.34 40.5089L292.111 42.8782L290.226 46.613C290.16 46.895 289.909 47.0963 289.619 47.0988C289.328 47.0976 289.077 46.8962 289.011 46.613L287.036 42.9316L285.799 40.6369L284.43 37.6562C284.276 37.2052 284.079 36.7704 283.846 36.3554C283.418 36.2349 282.972 36.1989 282.53 36.2498H280.841C280.011 36.2498 279.634 36.2498 279.691 36.6275C279.778 36.794 279.947 36.9021 280.136 36.9096C280.562 37.1058 280.832 37.537 280.822 38.0066C280.822 38.3185 280.822 50.9727 280.754 51.5306C280.761 51.6275 280.744 51.7244 280.705 51.8138C280.656 52.3418 280.293 52.7879 279.785 52.9432C279.596 52.9519 279.427 53.06 279.34 53.2265C279.283 53.5805 279.668 53.6029 280.498 53.6029H283.243C284.072 53.6029 284.457 53.6029 284.407 53.2265C284.319 53.06 284.151 52.9531 283.962 52.9432C283.453 52.7892 283.086 52.3431 283.031 51.8138C282.969 51.497 282.924 51.1777 282.899 50.8559C282.899 50.1626 282.858 48.9724 282.866 48.2443V47.9995C282.866 47.3063 282.866 46.116 282.907 45.3879L282.975 42.5552C282.975 41.8619 283.284 41.7625 283.619 42.3924L285.472 45.8588C285.81 46.4887 287.586 49.888 287.9 50.5242C287.951 50.7838 288.102 51.0124 288.321 51.1616C288.542 51.3119 288.815 51.3653 289.076 51.3082C290.007 51.3082 290.007 51.0596 290.392 50.2272C290.671 49.616 294.645 41.7215 294.645 41.7215C294.965 41.0853 295.248 41.145 295.267 41.8619C295.267 41.8619 295.315 51.4821 295.267 51.9194V52.0623C295.159 52.486 294.835 52.8215 294.415 52.9432C294.227 52.9544 294.058 53.0612 293.97 53.2265C293.917 53.5805 294.298 53.6029 295.131 53.6029H298.559C299.395 53.6029 299.773 53.6029 299.724 53.2265C299.628 53.055 299.449 52.9469 299.252 52.9432ZM306.59 52.0772H306.424C305.436 52.0772 304.414 52.0772 303.883 51.5417C303.585 51.1951 303.438 50.7428 303.475 50.2868V42.3054C303.475 40.6667 303.433 39.8939 303.475 38.0514C304.451 37.9109 305.437 37.8451 306.424 37.8513C308.309 37.8513 310.251 38.1085 311.914 39.9324C313.055 41.2829 313.648 43.0149 313.573 44.7816C313.565 49.2395 310.828 52.0623 306.59 52.0623V52.0772ZM313.754 37.9271C311.571 36.1901 307.435 36.2759 307.435 36.2759H300.341C299.512 36.2759 299.211 36.3331 299.278 36.6946C299.369 36.8598 299.537 36.9654 299.724 36.9779C300.211 37.04 300.589 37.4314 300.636 37.9197C300.636 38.5185 300.727 40.3872 300.727 41.0394V52.2686C300.724 52.9854 301.3 53.5681 302.016 53.5768H306.254C308.063 53.5619 309.853 53.2128 311.533 52.5444C314.75 51.1752 316.815 47.9933 316.751 44.4996C316.807 41.965 315.71 39.541 313.765 37.9122L313.754 37.9271Z" fill="#1F1D43"/>
<path d="M303.883 51.5415C303.585 51.1949 303.438 50.7426 303.475 50.2866V42.3065C303.475 40.6664 303.434 39.8948 303.475 38.0511C304.451 37.9119 305.438 37.8449 306.424 37.8523C308.31 37.8523 310.252 38.107 311.914 39.9322C313.057 41.2827 313.648 43.0134 313.574 44.7813C313.566 49.2392 310.828 52.0621 306.591 52.0621V52.0769H306.424C305.436 52.0769 304.415 52.0769 303.883 51.5415ZM307.435 36.2769H300.343C299.513 36.2769 299.211 36.3341 299.28 36.6956C299.369 36.8596 299.537 36.9652 299.725 36.9776C300.211 37.041 300.589 37.4323 300.636 37.9194C300.636 38.5195 300.727 40.3868 300.727 41.0404V52.2695C300.724 52.9852 301.301 53.5691 302.017 53.5778H306.254C308.064 53.5629 309.853 53.2113 311.533 52.5441C314.751 51.1762 316.815 47.9931 316.753 44.4993C316.809 41.9636 315.71 39.5408 313.767 37.9119L313.755 37.9268C311.769 36.3477 308.166 36.2757 307.531 36.2757C307.469 36.2757 307.435 36.2769 307.435 36.2769ZM295.192 36.3489C294.944 36.7615 294.743 37.2 294.597 37.6597L293.34 40.5086L292.111 42.8792L290.227 46.614C290.161 46.8948 289.909 47.096 289.619 47.0985C289.328 47.0973 289.077 46.896 289.012 46.614L287.037 42.9314L285.799 40.6366L284.431 37.656C284.276 37.2062 284.079 36.7714 283.847 36.3564C283.419 36.2359 282.972 36.1986 282.53 36.2496H280.841C280.012 36.2496 279.634 36.2496 279.691 36.6272C279.778 36.7938 279.947 36.9018 280.137 36.9092C280.562 37.1068 280.832 37.5367 280.822 38.0064C280.822 38.3182 280.822 50.9736 280.754 51.5315C280.762 51.6272 280.744 51.7254 280.705 51.8136C280.657 52.3416 280.294 52.7876 279.785 52.9429C279.598 52.9529 279.427 53.0597 279.342 53.2262C279.284 53.5803 279.668 53.6027 280.498 53.6027H283.244C284.073 53.6027 284.457 53.6027 284.409 53.2262C284.32 53.0597 284.151 52.9529 283.964 52.9429C283.454 52.7888 283.086 52.3428 283.033 51.8136C282.969 51.4967 282.924 51.1774 282.899 50.8557C282.899 50.1624 282.858 48.9721 282.866 48.2453V48.0005C282.866 47.3072 282.866 46.1158 282.908 45.3877L282.975 42.5549C282.975 41.8616 283.284 41.7622 283.619 42.3922L285.472 45.8585C285.81 46.4897 287.588 49.8878 287.9 50.5252C287.951 50.7848 288.102 51.0122 288.322 51.1613C288.542 51.3116 288.816 51.365 289.076 51.3079C290.007 51.3079 290.007 51.0594 290.392 50.227C290.671 49.6157 294.645 41.7213 294.645 41.7213C294.966 41.0851 295.249 41.146 295.267 41.8616C295.267 41.8616 295.316 51.4818 295.267 51.9192V52.0621C295.16 52.4857 294.835 52.8212 294.415 52.9429C294.227 52.9541 294.06 53.0609 293.97 53.2262C293.918 53.5803 294.298 53.6027 295.131 53.6027H298.559C299.395 53.6027 299.773 53.6027 299.725 53.2262C299.628 53.0548 299.449 52.9467 299.252 52.9429C298.775 52.7479 298.431 52.3217 298.34 51.8136C298.34 51.5005 298.015 37.6112 298.015 37.6112C298.015 36.9168 298.015 36.3713 297.846 36.2993C297.361 36.2309 296.873 36.2086 296.383 36.2309C296.261 36.2123 296.139 36.2036 296.018 36.2036C295.737 36.2036 295.458 36.252 295.192 36.3489Z" fill="#1F1D43"/>
<path d="M276.302 48.6208C275.786 49.6906 275.108 50.6733 274.292 51.5343C273.593 52.3233 272.616 52.8104 271.566 52.8948C270.465 52.8948 270.103 51.8238 270.103 50.8523C270.103 48.1313 273.029 43.0709 276 43.0709C277.101 43.0709 277.437 43.8474 277.437 44.7705C277.332 46.1173 276.94 47.4256 276.283 48.6072L276.302 48.6208ZM265.367 42.8522C265.649 42.8298 265.927 42.9367 266.121 43.1429C266.31 43.3454 266.402 43.62 266.374 43.8959C266.374 46.5336 263.475 47.7139 261.269 47.8642C261.616 46.2553 263.512 42.8522 265.378 42.8522H265.367ZM276.589 42.0161C274.436 42.0161 272.472 44.0089 271.174 45.516C271.244 45.0824 271.351 44.655 271.491 44.2388L273.505 37.4563C273.614 37.1668 273.572 36.8413 273.392 36.5891C273.214 36.3368 272.919 36.194 272.611 36.2126H270.914C270.103 36.2126 269.727 36.2126 269.783 36.5891C269.868 36.7543 270.035 36.8599 270.22 36.8686C271.027 37.1022 271.294 37.998 271.079 39.0056C271.079 38.9261 269.066 47.0877 269.066 47.0877C268.815 47.8903 268.381 48.6246 267.8 49.2321C267.8 49.2321 265.363 52.2462 262.898 52.2462C262.377 52.2985 261.861 52.1171 261.487 51.753C261.109 51.3852 260.91 50.8734 260.941 50.3466C260.93 49.7366 260.992 49.1278 261.125 48.5314C263.69 48.2866 268.289 47.0877 268.289 43.7679C268.289 42.4074 267.023 42.0422 265.944 42.0422C262.468 42.0422 259.036 46.3422 259.036 50.2037C259.036 51.8326 259.791 53.4825 261.989 53.4825C266.136 53.4825 268.399 49.4011 268.52 49.247C268.413 49.7875 268.347 50.3354 268.319 50.887C268.319 52.6613 269.594 53.4825 271.17 53.4825C272.422 53.4328 273.635 53.0414 274.681 52.3519C275.585 51.799 276.398 51.1119 277.094 50.313C278.435 48.8954 279.236 47.0529 279.356 45.106C279.356 43.297 278.557 42.0533 276.637 42.0533L276.589 42.0161ZM262.023 37.9458C262.149 37.5246 262.404 37.1519 262.75 36.8798C262.996 36.8587 263.221 36.7319 263.365 36.5332C263.425 36.2809 263.206 36.2126 262.321 36.2126H259.621C258.81 36.2126 258.434 36.2126 258.49 36.5891C258.578 36.7519 258.743 36.8574 258.927 36.8686C259.681 37.0836 260.213 37.4862 259.971 38.3036C259.73 39.1212 256.379 49.1265 256.379 49.1265C256.249 49.503 255.922 49.5899 255.82 49.0507L254.082 40.6295C253.934 39.9511 253.773 39.0503 253.704 38.6615C253.614 38.3235 253.302 38.0924 252.951 38.1036C252.638 38.0974 252.351 38.2763 252.219 38.5608C252 39.0317 251.551 39.9201 251.243 40.5686L246.846 49.1762C246.665 49.4918 246.436 49.3974 246.401 49.0171L245.855 40.2816C245.855 39.6007 245.787 38.2403 245.79 38.0216C245.793 37.4712 246.166 36.9929 246.699 36.8574C246.892 36.8426 247.065 36.7295 247.155 36.5593C247.208 36.2126 246.812 36.2201 246.002 36.2201H242.654C242.114 36.2201 241.862 36.2946 241.899 36.5966C241.984 36.7605 242.149 36.8661 242.333 36.8761C242.681 36.9742 242.965 37.2252 243.105 37.5582C243.155 37.6787 243.199 37.7992 243.238 37.9346V38.1197C243.395 38.895 243.505 39.679 243.569 40.4667L244.301 51.1355C244.282 51.8661 244.361 52.5954 244.535 53.3049C244.742 53.7459 245.722 53.7198 246.111 53.1284C246.22 52.9581 251.74 42.4459 251.74 42.4459C252.065 41.8197 252.412 41.8769 252.582 42.5702L254.312 51.2362C254.418 51.8822 254.568 52.5184 254.76 53.1433C254.995 53.7683 256.178 53.6589 256.492 53.0489C256.811 52.4252 257.091 51.7816 257.332 51.1231C257.332 51.1231 261.839 38.5 262.023 37.9458Z" fill="#1F1D43"/>
<path d="M259.621 36.2135C258.81 36.2135 258.432 36.2135 258.489 36.5887C258.576 36.7527 258.742 36.8571 258.926 36.8683C259.68 37.0832 260.213 37.4858 259.971 38.3046C259.729 39.122 256.377 49.1274 256.377 49.1274C256.249 49.5026 255.922 49.5896 255.819 49.0516L254.081 40.6291C253.934 39.9507 253.772 39.05 253.704 38.6623C253.614 38.3231 253.3 38.0921 252.95 38.1045C252.637 38.0971 252.351 38.276 252.219 38.5605C252 39.0313 251.551 39.9209 251.242 40.5682L246.846 49.1759C246.664 49.4914 246.436 49.3982 246.401 49.0181L245.854 40.2825C245.854 39.6004 245.787 38.24 245.789 38.0213C245.791 37.4709 246.166 36.9925 246.699 36.8571C246.892 36.8422 247.063 36.7304 247.154 36.5589C247.207 36.2135 246.812 36.2197 246 36.2197H242.654C242.114 36.2197 241.861 36.2942 241.899 36.5962C241.982 36.7602 242.149 36.8658 242.332 36.8757C242.68 36.9739 242.965 37.2249 243.105 37.5578C243.155 37.6783 243.199 37.7988 243.237 37.9356V38.1194C243.395 38.8947 243.505 39.6786 243.569 40.4664L244.3 51.1352C244.282 51.8657 244.361 52.5963 244.533 53.3045C244.741 53.7468 245.722 53.7207 246.111 53.1293C246.22 52.9591 251.739 42.4456 251.739 42.4456C252.063 41.8194 252.412 41.8766 252.581 42.5698L254.312 51.2358C254.417 51.8819 254.567 52.5193 254.76 53.1442C254.995 53.7691 256.178 53.6599 256.492 53.0498C256.81 52.4249 257.091 51.7813 257.332 51.124C257.332 51.124 261.837 38.4996 262.021 37.9467C262.149 37.5243 262.403 37.1515 262.75 36.8794C262.995 36.8596 263.22 36.7329 263.364 36.5328C263.425 36.2806 263.206 36.2135 262.32 36.2135H259.621ZM270.102 50.8531C270.102 48.1322 273.029 43.0705 276 43.0705C277.101 43.0705 277.437 43.8471 277.437 44.7702C277.332 46.117 276.938 47.4253 276.283 48.6068L276.301 48.6217C275.786 49.6903 275.107 50.673 274.292 51.5353C273.593 52.3229 272.616 52.81 271.565 52.8945C270.465 52.8945 270.102 51.8247 270.102 50.8531ZM266.12 43.1426C266.309 43.3464 266.402 43.6197 266.374 43.8967C266.374 46.5344 263.475 47.7135 261.268 47.8651C261.615 46.2561 263.511 42.8531 265.378 42.8531H265.367C265.649 42.8308 265.926 42.9363 266.12 43.1426ZM272.61 36.2135H270.914C270.102 36.2135 269.725 36.2135 269.783 36.5887C269.867 36.7539 270.034 36.8596 270.219 36.8683C271.027 37.1019 271.294 37.9989 271.079 39.0053C271.079 38.9258 269.065 47.0873 269.065 47.0873C268.815 47.8899 268.381 48.6255 267.798 49.2318C267.798 49.2318 265.363 52.2472 262.897 52.2472C262.377 52.2981 261.861 52.1167 261.487 51.7527C261.109 51.3862 260.91 50.873 260.94 50.3475C260.93 49.7362 260.992 49.1274 261.125 48.531C263.689 48.2863 268.288 47.0873 268.288 43.7675C268.288 42.4083 267.023 42.0418 265.944 42.0418C262.468 42.0418 259.035 46.3419 259.035 50.2046C259.035 51.8322 259.79 53.4822 261.989 53.4822C266.136 53.4822 268.399 49.4007 268.52 49.2467C268.413 49.7884 268.345 50.3363 268.319 50.8855C268.319 52.6609 269.594 53.4822 271.17 53.4822C272.421 53.4324 273.635 53.0411 274.679 52.3515C275.583 51.7999 276.398 51.1116 277.094 50.3139C278.435 48.8951 279.234 47.0525 279.355 45.1057C279.355 43.2967 278.557 42.053 276.636 42.053L276.588 42.0157C274.435 42.0157 272.47 44.0098 271.174 45.5169C271.244 45.0833 271.35 44.6559 271.489 44.2384L273.503 37.4572C273.613 37.1665 273.571 36.8422 273.39 36.5887C273.225 36.3514 272.954 36.2111 272.664 36.2111C272.647 36.2111 272.628 36.2123 272.61 36.2135Z" fill="#1F1D43"/>
<path d="M316.82 36.6034H317.126C317.285 36.6034 317.447 36.6034 317.447 36.8295C317.447 37.0556 317.278 37.0742 317.07 37.0742H316.82V36.6034ZM317.133 36.412H316.595V37.919H316.82V37.2742H317.074L317.45 37.9414H317.703L317.28 37.2668C317.388 37.2668 317.489 37.2209 317.56 37.1425C317.633 37.0618 317.67 36.9562 317.662 36.8481C317.67 36.7127 317.613 36.5798 317.511 36.4903C317.437 36.4282 317.344 36.3946 317.249 36.3946C317.21 36.3946 317.172 36.3996 317.133 36.412ZM316.067 37.2978C316.064 37.2556 316.064 37.2146 316.067 37.1724C316.065 36.7922 316.262 36.4393 316.586 36.2418C316.906 36.0492 317.305 36.0492 317.624 36.2418C317.949 36.4393 318.148 36.7922 318.144 37.1724C318.179 37.7464 317.741 38.2384 317.168 38.2732C317.147 38.2744 317.126 38.2757 317.105 38.2757C316.558 38.2757 316.1 37.8507 316.067 37.2978ZM315.792 37.1612C315.791 37.1649 315.791 37.1687 315.791 37.1724C315.79 37.524 315.925 37.8607 316.169 38.1142C316.412 38.3589 316.743 38.4943 317.089 38.4906L317.092 38.4993C317.821 38.5092 318.42 37.9278 318.43 37.1985C318.441 36.4704 317.859 35.8716 317.131 35.8616C317.125 35.8616 317.118 35.8616 317.112 35.8616C316.391 35.8616 315.802 36.4393 315.792 37.1612Z" fill="#1F1D43"/>
</svg>
