<svg width="23" height="23" viewBox="0 0 23 23" fill="none" xmlns="http://www.w3.org/2000/svg"><path d="M11.0075 -0.000486067C8.4426 -0.00211271 5.95775 0.892585 3.9826 2.52891C2.00744 4.16523 0.666171 6.44031 0.19069 8.96077C-0.28479 11.4812 0.135414 14.0886 1.37865 16.3321C2.62188 18.5755 4.60998 20.314 6.9992 21.247C6.90295 20.3766 6.81494 19.0387 7.03633 18.0885C7.23709 17.2291 8.32614 12.6199 8.32614 12.6199C8.32614 12.6199 7.9975 11.9612 7.9975 10.9877C7.9975 9.45721 8.88441 8.3159 9.98859 8.3159C10.9264 8.3159 11.3802 9.01994 11.3802 9.8656C11.3802 10.8089 10.7793 12.2197 10.4685 13.5274C10.21 14.622 11.0185 15.5157 12.0979 15.5157C14.0533 15.5157 15.5562 13.4531 15.5562 10.4775C15.5562 7.84426 13.6628 6.00305 10.9608 6.00305C7.83112 6.00305 5.99403 8.35028 5.99403 10.7759C5.99403 11.7219 6.35842 12.7354 6.81219 13.2868C6.85127 13.3283 6.8789 13.3793 6.8924 13.4347C6.90589 13.4902 6.90479 13.5482 6.8892 13.603C6.80532 13.9495 6.61968 14.6976 6.58393 14.8502C6.5358 15.051 6.42442 15.0936 6.21541 14.9973C4.84035 14.3579 3.98231 12.349 3.98231 10.7346C3.98231 7.26536 6.50418 4.07933 11.2509 4.07933C15.0667 4.07933 18.0327 6.79783 18.0327 10.4321C18.0327 14.2232 15.6415 17.2745 12.3248 17.2745C11.2096 17.2745 10.1618 16.6955 9.80296 16.0108L9.11818 18.6261C8.86929 19.5818 8.19826 20.7795 7.74999 21.5096C9.26252 21.9773 10.8582 22.113 12.428 21.9074C13.9977 21.7018 15.5046 21.1598 16.8457 20.3184C18.1868 19.4771 19.3305 18.3561 20.1986 17.0322C21.0668 15.7082 21.6389 14.2125 21.876 12.6472C22.113 11.0818 22.0094 9.48379 21.5722 7.96217C21.135 6.44056 20.3745 5.03124 19.3427 3.83049C18.3109 2.62975 17.032 1.66587 15.5935 1.00471C14.155 0.343541 12.5907 0.00066994 11.0075 -0.000486067Z" fill="white"></path></svg>